# Blender v2.81 (sub 16) OBJ File: ''
# www.blender.org
mtllib 1.mtl
o 4
v -2.321011 4.493639 -0.549999
v -2.265452 4.441109 -0.549999
v -2.342056 4.566835 -0.549999
v -2.127396 4.431636 -0.549999
v -2.087830 4.455747 -0.549999
v -2.330272 4.629698 -0.549999
v -2.024695 4.499666 -0.549999
v -2.225887 4.806232 -0.549999
v -2.164435 4.893207 -0.549999
v 0.020061 6.066081 -0.549999
v -0.021187 6.157362 -0.549999
v -0.114628 5.965328 -0.549999
v -0.897511 6.819579 -0.549999
v -0.916873 6.795468 -0.549999
v -0.894143 6.819579 -0.549999
v -0.830165 6.775662 -0.549999
v -0.964855 6.727437 -0.549999
v -0.765347 6.728298 -0.549999
v -1.093653 6.536265 -0.549999
v -0.153350 5.932605 -0.549999
v 0.057101 6.097944 -0.549999
v 0.057944 6.101388 -0.549999
v -0.253526 5.860269 -0.549999
v -0.339391 5.790516 -0.549999
v -0.678640 5.527868 -0.549999
v -2.204000 4.419579 -0.549999
v -2.162750 4.420442 -0.549999
v -2.140864 4.425608 -0.549999
v -2.342056 4.566835 -0.999999
v -2.265452 4.441109 -0.999999
v -2.321011 4.493639 -0.999999
v -2.330272 4.629698 -0.999999
v -2.087830 4.455747 -0.999999
v -2.127396 4.431636 -0.999999
v -2.225887 4.806232 -0.999999
v -2.024695 4.499666 -0.999999
v -2.164435 4.893207 -0.999999
v -0.114628 5.965328 -0.999999
v -0.021187 6.157362 -0.999999
v 0.020061 6.066081 -0.999999
v -0.894143 6.819579 -0.999999
v -0.916873 6.795468 -0.999999
v -0.897511 6.819579 -0.999999
v -0.830166 6.775662 -0.999999
v -0.964855 6.727437 -0.999999
v -0.765347 6.728298 -0.999999
v -1.093653 6.536265 -0.999999
v -0.153350 5.932605 -0.999999
v 0.057944 6.101388 -0.999999
v 0.057101 6.097944 -0.999999
v -0.253527 5.860269 -0.999999
v -0.339391 5.790516 -0.999999
v -0.678640 5.527868 -0.999999
v -2.204000 4.419579 -0.999999
v -2.140864 4.425608 -0.999999
v -2.162750 4.420442 -0.999999
vn 0.0000 0.0000 1.0000
vn 0.0000 0.0000 -1.0000
vn -0.6870 -0.7266 0.0000
vn -0.9611 -0.2763 0.0000
vn -0.9829 0.1842 0.0000
vn -0.8608 0.5090 0.0000
vn -0.8167 0.5770 0.0000
vn -0.8378 0.5460 0.0000
vn -0.8293 0.5587 0.0000
vn -0.8172 0.5764 0.0000
vn -0.7797 0.6261 0.0000
vn 0.0000 1.0000 0.0000
vn 0.5659 0.8244 -0.0000
vn 0.5900 0.8074 -0.0000
vn 0.6087 0.7934 0.0000
vn 0.5775 0.8164 0.0000
vn 0.9713 -0.2377 0.0000
vn 0.6521 -0.7581 0.0000
vn 0.5990 -0.8008 0.0000
vn 0.6455 -0.7638 0.0000
vn 0.5854 -0.8107 0.0000
vn 0.6305 -0.7762 -0.0000
vn 0.6122 -0.7907 -0.0000
vn 0.6070 -0.7947 -0.0000
vn 0.5711 -0.8209 0.0000
vn 0.5204 -0.8539 0.0000
vn 0.4085 -0.9128 0.0000
vn 0.2297 -0.9733 0.0000
vn 0.0209 -0.9998 0.0000
vn -0.3307 -0.9438 0.0000
usemtl Material.003
s 1
f 1//1 2//1 3//1
f 4//1 5//1 6//1
f 2//1 6//1 3//1
f 6//1 7//1 8//1
f 8//1 7//1 9//1
f 10//1 11//1 12//1
f 13//1 14//1 15//1
f 15//1 14//1 16//1
f 16//1 14//1 17//1
f 18//1 16//1 17//1
f 19//1 18//1 17//1
f 12//1 11//1 20//1
f 21//1 22//1 10//1
f 10//1 22//1 11//1
f 11//1 23//1 20//1
f 11//1 18//1 23//1
f 23//1 18//1 24//1
f 25//1 24//1 19//1
f 9//1 25//1 19//1
f 24//1 18//1 19//1
f 9//1 7//1 25//1
f 6//1 5//1 7//1
f 2//1 4//1 6//1
f 2//1 26//1 4//1
f 4//1 27//1 28//1
f 4//1 26//1 27//1
f 29//2 30//2 31//2
f 32//2 33//2 34//2
f 29//2 32//2 30//2
f 35//2 36//2 32//2
f 37//2 36//2 35//2
f 38//2 39//2 40//2
f 41//2 42//2 43//2
f 44//2 42//2 41//2
f 45//2 42//2 44//2
f 45//2 44//2 46//2
f 45//2 46//2 47//2
f 48//2 39//2 38//2
f 40//2 49//2 50//2
f 39//2 49//2 40//2
f 48//2 51//2 39//2
f 51//2 46//2 39//2
f 52//2 46//2 51//2
f 47//2 52//2 53//2
f 47//2 53//2 37//2
f 47//2 46//2 52//2
f 53//2 36//2 37//2
f 36//2 33//2 32//2
f 32//2 34//2 30//2
f 34//2 54//2 30//2
f 55//2 56//2 34//2
f 56//2 54//2 34//2
f 1//3 30//3 2//3
f 1//3 31//3 30//3
f 3//4 31//4 1//4
f 3//4 29//4 31//4
f 6//5 29//5 3//5
f 6//5 32//5 29//5
f 8//6 32//6 6//6
f 8//6 35//6 32//6
f 9//7 35//7 8//7
f 9//7 37//7 35//7
f 19//8 37//8 9//8
f 19//8 47//8 37//8
f 17//9 47//9 19//9
f 17//9 45//9 47//9
f 14//10 45//10 17//10
f 14//10 42//10 45//10
f 13//11 42//11 14//11
f 13//11 43//11 42//11
f 15//12 43//12 13//12
f 15//12 41//12 43//12
f 16//13 41//13 15//13
f 16//13 44//13 41//13
f 18//14 44//14 16//14
f 18//14 46//14 44//14
f 11//15 46//15 18//15
f 11//15 39//15 46//15
f 22//16 39//16 11//16
f 22//16 49//16 39//16
f 21//17 49//17 22//17
f 21//17 50//17 49//17
f 10//18 50//18 21//18
f 10//18 40//18 50//18
f 12//19 40//19 10//19
f 12//19 38//19 40//19
f 20//20 38//20 12//20
f 20//20 48//20 38//20
f 23//21 48//21 20//21
f 23//21 51//21 48//21
f 24//22 51//22 23//22
f 24//22 52//22 51//22
f 25//23 52//23 24//23
f 25//23 53//24 52//23
f 7//24 53//24 25//23
f 7//24 36//24 53//24
f 5//25 36//25 7//25
f 5//25 33//25 36//25
f 4//26 33//26 5//26
f 4//26 34//26 33//26
f 28//27 34//27 4//27
f 28//27 55//27 34//27
f 27//28 55//28 28//28
f 27//28 56//28 55//28
f 26//29 56//29 27//29
f 26//29 54//29 56//29
f 2//30 54//30 26//30
f 2//30 30//30 54//30
