# Blender v2.81 (sub 16) OBJ File: ''
# www.blender.org
mtllib 2.mtl
o 1
v 0.807795 5.585435 0.000001
v -0.755585 6.776683 0.000001
v -0.240090 5.991925 0.000001
v -2.231640 4.761155 0.000001
v -3.313330 4.648245 0.000001
v -2.231640 4.721635 0.000001
v -1.876710 5.348315 0.000001
v -3.682345 5.320085 0.000001
v 1.686670 4.936175 0.000001
v 0.624700 2.895245 0.000000
v -1.065440 7.152124 0.000001
v -3.944315 7.329965 0.000001
v -3.964035 6.999690 0.000001
v -1.028825 6.567791 0.000001
v -0.780935 6.827495 0.000001
v -0.789385 6.861369 0.000001
v -1.231640 6.310910 0.000001
v -1.096430 6.497220 0.000001
v -1.930230 8.433705 0.000001
v -3.882345 7.733635 0.000001
v -1.051360 6.567791 0.000001
v -1.237275 8.481695 0.000001
v -0.558400 10.796445 0.000002
v -1.133050 10.672235 0.000002
v -3.268260 9.116840 0.000001
v -2.228825 8.961580 0.000001
v -2.209105 9.040620 0.000001
v -2.803470 9.667295 0.000002
v -2.175300 9.071675 0.000001
v -2.254175 10.133070 0.000002
v -0.789385 6.881129 0.000001
v -1.023190 7.166239 0.000001
v -3.547130 8.665180 0.000001
v -2.200655 8.888186 0.000001
v -3.665440 8.411120 0.000001
v -2.104880 8.713170 0.000001
v -0.152766 7.389245 0.000001
v -0.797835 7.301736 0.000001
v 0.748640 10.796445 0.000002
v 1.216250 8.416770 0.000001
v 1.326105 10.635540 0.000002
v -0.530230 7.939705 0.000001
v -0.338681 7.784445 0.000001
v 0.362727 7.781625 0.000001
v -0.265442 7.708230 0.000001
v -0.510515 7.504980 0.000001
v 2.241600 3.516275 0.000001
v 2.117655 4.648245 0.000001
v 2.021880 4.704700 0.000001
v 3.171175 9.325730 0.000002
v 2.283855 9.023685 0.000001
v 2.295120 8.984165 0.000001
v 2.140190 9.082965 0.000001
v 3.579630 8.696230 0.000001
v 2.095120 8.617190 0.000001
v 3.866950 7.998985 0.000001
v 1.681035 7.970755 0.000001
v 4.016250 7.248102 0.000001
v 4.033150 6.658123 0.000001
v 1.616250 5.825380 0.000001
v 3.906390 5.864900 0.000001
v 3.999345 6.310910 0.000001
v 2.095120 5.082965 0.000001
v 3.450050 4.772450 0.000001
v 2.238785 4.840200 0.000001
v 2.289485 4.744220 0.000001
v 3.717655 5.297500 0.000001
v 1.726105 3.228340 0.000001
v 3.109205 4.295385 0.000001
v 2.258500 4.673650 0.000001
v 2.706390 3.874780 0.000001
v 2.286670 4.724460 0.000001
v 2.176810 4.622835 0.000001
v -0.389386 6.110485 0.000001
v 0.092304 2.850080 0.000000
v 1.030330 2.977105 0.000000
v -3.966850 6.680706 0.000001
v -3.896430 6.059675 0.000001
v -1.707695 5.608015 0.000001
v -0.434456 2.872660 0.000000
v -0.502060 5.783035 0.000001
v 1.306390 3.058970 0.000000
v 2.650050 9.870545 0.000002
v 2.255685 9.063205 0.000001
v 2.210615 4.625660 0.000001
v 0.934560 6.847255 0.000001
v 0.421881 10.841610 0.000002
v 0.021882 10.850080 0.000002
v 2.295120 8.944645 0.000001
v 2.207795 9.082965 0.000001
v 2.030330 10.313735 0.000002
v -0.265442 7.719520 0.000001
v -0.944315 2.965815 0.000000
v -1.718965 4.868425 0.000001
v -1.440090 3.129540 0.000001
v -2.118965 4.611545 0.000001
v -2.679525 3.922765 0.000001
v -2.361215 3.654595 0.000001
v -2.059810 4.625660 0.000001
v -1.913330 3.358195 0.000001
v -0.927415 7.219873 0.000001
v -0.386569 7.600960 0.000001
v -1.707695 8.828905 0.000001
v -1.521780 10.545210 0.000002
v -1.806285 10.412535 0.000002
v -1.890795 8.953110 0.000001
v -2.026005 9.034975 0.000001
v -2.116145 9.071675 0.000001
v -3.775300 8.120365 0.000001
v -2.172485 4.631305 0.000001
v -2.214740 4.673650 0.000001
v -2.921780 4.162710 0.000001
v -0.240090 5.991925 -1.499999
v -0.755585 6.776683 -1.499999
v 0.807795 5.585435 -1.499999
v -2.231640 4.721635 -1.499999
v -3.313330 4.648245 -1.499999
v -2.231640 4.761156 -1.499999
v -3.682345 5.320086 -1.499999
v -1.876710 5.348315 -1.499999
v 0.624700 2.895245 -1.500000
v 1.686670 4.936175 -1.499999
v -3.964035 6.999691 -1.499999
v -3.944315 7.329966 -1.499999
v -1.065440 7.152124 -1.499999
v -0.789385 6.861370 -1.499999
v -0.780935 6.827496 -1.499999
v -1.028825 6.567791 -1.499999
v -1.096430 6.497221 -1.499999
v -1.231640 6.310911 -1.499999
v -3.882345 7.733635 -1.499999
v -1.930230 8.433705 -1.499999
v -1.051360 6.567791 -1.499999
v -1.133050 10.672235 -1.499998
v -0.558400 10.796445 -1.499998
v -1.237275 8.481695 -1.499999
v -2.209105 9.040620 -1.499999
v -2.228825 8.961580 -1.499999
v -3.268260 9.116840 -1.499999
v -2.254175 10.133070 -1.499998
v -2.175300 9.071675 -1.499999
v -2.803470 9.667295 -1.499998
v -1.023190 7.166239 -1.499999
v -0.789385 6.881129 -1.499999
v -2.200655 8.888186 -1.499999
v -3.547130 8.665180 -1.499999
v -2.104880 8.713170 -1.499999
v -3.665440 8.411119 -1.499999
v -0.797835 7.301736 -1.499999
v -0.152766 7.389246 -1.499999
v 1.326105 10.635540 -1.499998
v 1.216250 8.416770 -1.499999
v 0.748640 10.796445 -1.499998
v 0.362727 7.781625 -1.499999
v -0.338682 7.784445 -1.499999
v -0.530230 7.939705 -1.499999
v -0.265443 7.708230 -1.499999
v -0.510515 7.504981 -1.499999
v 2.021880 4.704700 -1.499999
v 2.117655 4.648245 -1.499999
v 2.241600 3.516275 -1.499999
v 2.295120 8.984165 -1.499999
v 2.283855 9.023685 -1.499999
v 3.171175 9.325730 -1.499998
v 2.140190 9.082965 -1.499999
v 3.866950 7.998985 -1.499999
v 2.095120 8.617190 -1.499999
v 3.579630 8.696230 -1.499999
v 1.681035 7.970756 -1.499999
v 4.016250 7.248103 -1.499999
v 4.033150 6.658123 -1.499999
v 1.616250 5.825380 -1.499999
v 3.999345 6.310911 -1.499999
v 3.906390 5.864901 -1.499999
v 2.095120 5.082965 -1.499999
v 2.238785 4.840200 -1.499999
v 3.450050 4.772450 -1.499999
v 2.289485 4.744220 -1.499999
v 3.717655 5.297501 -1.499999
v 1.726105 3.228340 -1.500000
v 2.706390 3.874780 -1.499999
v 2.258500 4.673650 -1.499999
v 3.109205 4.295385 -1.499999
v 2.286670 4.724461 -1.499999
v 2.176810 4.622836 -1.499999
v -0.389386 6.110486 -1.499999
v 0.092304 2.850080 -1.500000
v 1.030330 2.977105 -1.500000
v -1.707695 5.608016 -1.499999
v -3.896430 6.059676 -1.499999
v -3.966850 6.680707 -1.499999
v -0.502060 5.783035 -1.499999
v -0.434457 2.872660 -1.500000
v 1.306390 3.058970 -1.500000
v 2.255685 9.063205 -1.499999
v 2.650050 9.870545 -1.499998
v 2.210615 4.625660 -1.499999
v 0.934560 6.847256 -1.499999
v 0.421881 10.841610 -1.499998
v 0.021882 10.850080 -1.499998
v 2.295120 8.944645 -1.499999
v 2.207795 9.082965 -1.499999
v 2.030330 10.313735 -1.499998
v -0.265443 7.719521 -1.499999
v -1.440090 3.129540 -1.500000
v -1.718965 4.868425 -1.499999
v -0.944315 2.965815 -1.500000
v -2.361215 3.654595 -1.499999
v -2.679525 3.922765 -1.499999
v -2.118965 4.611546 -1.499999
v -2.059810 4.625660 -1.499999
v -1.913330 3.358195 -1.499999
v -0.927415 7.219873 -1.499999
v -0.386569 7.600960 -1.499999
v -1.707695 8.828905 -1.499999
v -1.521780 10.545210 -1.499998
v -1.890795 8.953110 -1.499999
v -1.806285 10.412535 -1.499998
v -2.026005 9.034975 -1.499999
v -2.116145 9.071675 -1.499999
v -3.775300 8.120365 -1.499999
v -2.172485 4.631306 -1.499999
v -2.921780 4.162711 -1.499999
v -2.214740 4.673650 -1.499999
vn -0.0000 -0.0000 1.0000
vn 0.0000 0.0000 -1.0000
vn -0.1797 -0.9837 0.0000
vn -0.3136 -0.9496 -0.0000
vn -0.4350 -0.9004 -0.0000
vn -0.5519 -0.8339 -0.0000
vn -0.6443 -0.7648 0.0000
vn -0.7037 -0.7105 -0.0000
vn -0.7784 -0.6277 -0.0000
vn -0.8765 -0.4814 0.0000
vn -0.9606 -0.2780 0.0000
vn -0.9606 -0.2781 0.0000
vn -0.9936 -0.1127 -0.0000
vn -1.0000 0.0088 0.0000
vn -0.9982 0.0596 0.0000
vn -0.9884 0.1517 0.0000
vn -0.9638 0.2668 0.0000
vn -0.9355 0.3535 -0.0000
vn -0.9065 0.4221 -0.0000
vn -0.8509 0.5254 0.0000
vn -0.7641 0.6451 0.0000
vn -0.6467 0.7627 0.0000
vn -0.5294 0.8484 0.0000
vn -0.4226 0.9063 0.0000
vn -0.3106 0.9505 0.0000
vn -0.2113 0.9774 0.0000
vn -0.0920 0.9958 0.0000
vn 0.0212 0.9998 0.0000
vn 0.1369 0.9906 0.0000
vn 0.2684 0.9633 0.0000
vn 0.4156 0.9095 0.0000
vn 0.5817 0.8134 0.0000
vn 0.7226 0.6912 0.0000
vn 0.8389 0.5443 0.0000
vn 0.9246 0.3810 0.0000
vn 0.9808 0.1950 0.0000
vn 0.9996 0.0286 0.0000
vn 0.9953 -0.0969 -0.0000
vn 0.9790 -0.2040 -0.0000
vn 0.9489 -0.3156 -0.0000
vn 0.8910 -0.4541 -0.0000
vn 0.8137 -0.5813 -0.0000
vn 0.7222 -0.6917 -0.0000
vn 0.6108 -0.7918 0.0000
vn 0.4876 -0.8730 -0.0000
vn 0.3742 -0.9273 -0.0000
vn 0.2843 -0.9587 -0.0000
vn 0.1978 -0.9802 -0.0000
vn 0.0845 -0.9964 -0.0000
vn -0.0428 -0.9991 -0.0000
vn -0.0833 0.9965 0.0000
vn -0.7079 0.7063 0.0000
vn -0.8746 0.4849 0.0000
vn -0.9900 0.1411 0.0000
vn -0.9900 0.1410 0.0000
vn -0.8842 -0.4671 -0.0000
vn -0.8606 -0.5093 -0.0000
vn -0.8404 -0.5420 0.0000
vn -0.8319 -0.5549 -0.0000
vn -0.8329 0.5534 0.0000
vn -0.8421 0.5394 0.0000
vn -0.8534 0.5212 0.0000
vn -1.0000 0.0000 0.0000
vn -0.9617 -0.2741 0.0000
vn -0.8143 -0.5804 0.0000
vn -0.3814 -0.9244 0.0000
vn 0.0000 -1.0000 0.0000
vn 0.5849 -0.8111 0.0000
vn 0.6057 -0.7957 -0.0000
vn 0.5970 -0.8022 0.0000
vn 0.6238 -0.7816 0.0000
vn 1.0000 0.0000 0.0000
vn 0.9703 0.2420 0.0000
vn 0.8948 0.4464 0.0000
vn 0.6061 0.7954 0.0000
vn 0.5942 0.8043 0.0000
vn 0.5682 0.8229 0.0000
vn 0.5078 0.8615 0.0000
vn 0.3947 0.9188 0.0000
vn -0.4886 0.8725 0.0000
vn -0.5341 0.8454 0.0000
vn -0.5775 0.8164 0.0000
vn -0.6123 0.7907 0.0000
vn -0.6630 0.7486 0.0000
vn -0.6634 -0.7483 0.0000
vn -0.6297 -0.7769 0.0000
vn -0.6084 -0.7936 0.0000
vn -0.5938 -0.8046 0.0000
vn -0.5614 -0.8276 0.0000
vn -0.5179 -0.8554 0.0000
vn -0.3771 -0.9262 0.0000
vn 0.6765 -0.7364 0.0000
vn 0.9703 -0.2421 0.0000
vn 0.9336 0.3583 0.0000
vn 0.8772 0.4801 0.0000
vn 0.8480 0.5300 0.0000
vn 0.8289 0.5593 0.0000
vn -0.3169 0.9485 0.0000
vn -0.2321 0.9727 0.0000
vn -0.5801 0.8145 0.0000
vn -0.6008 0.7994 0.0000
vn -0.6234 0.7819 0.0000
vn -0.6219 -0.7831 -0.0000
vn -0.5817 -0.8134 0.0000
vn 0.8428 -0.5382 -0.0000
vn 0.8093 -0.5874 0.0000
vn 0.8280 -0.5608 -0.0000
vn 0.8381 -0.5455 -0.0000
vn 0.8558 -0.5173 0.0000
vn 0.9432 0.3322 0.0000
vn 0.7079 0.7064 0.0000
vn 0.3464 0.9381 0.0000
usemtl Material.001
s 1
f 1//1 2//1 3//1
f 4//1 5//1 6//1
f 7//1 8//1 4//1
f 9//1 1//1 10//1
f 11//1 12//1 13//1
f 14//1 15//1 16//1
f 11//1 17//1 18//1
f 19//1 20//1 12//1
f 11//1 18//1 21//1
f 22//1 23//1 24//1
f 25//1 26//1 27//1
f 28//1 29//1 30//1
f 28//1 27//1 29//1
f 31//1 32//1 11//1
f 25//1 33//1 34//1
f 33//1 35//1 36//1
f 37//1 38//1 31//1
f 39//1 40//1 41//1
f 42//1 43//1 44//1
f 37//1 44//1 45//1
f 37//1 46//1 38//1
f 47//1 48//1 49//1
f 50//1 51//1 52//1
f 41//1 40//1 53//1
f 54//1 55//1 56//1
f 56//1 55//1 57//1
f 58//1 56//1 57//1
f 59//1 58//1 57//1
f 60//1 59//1 57//1
f 61//1 62//1 60//1
f 63//1 61//1 60//1
f 64//1 63//1 65//1
f 66//1 64//1 65//1
f 63//1 67//1 61//1
f 47//1 49//1 68//1
f 69//1 70//1 71//1
f 69//1 72//1 70//1
f 66//1 69//1 64//1
f 48//1 47//1 73//1
f 74//1 2//1 14//1
f 10//1 1//1 75//1
f 10//1 76//1 9//1
f 77//1 78//1 79//1
f 80//1 75//1 81//1
f 68//1 9//1 82//1
f 83//1 84//1 50//1
f 85//1 73//1 71//1
f 73//1 47//1 71//1
f 70//1 85//1 71//1
f 72//1 69//1 66//1
f 67//1 63//1 64//1
f 59//1 60//1 62//1
f 57//1 86//1 60//1
f 87//1 40//1 39//1
f 87//1 88//1 40//1
f 54//1 89//1 55//1
f 54//1 50//1 89//1
f 89//1 50//1 52//1
f 50//1 84//1 51//1
f 83//1 90//1 84//1
f 83//1 53//1 90//1
f 83//1 91//1 53//1
f 53//1 91//1 41//1
f 43//1 92//1 44//1
f 12//1 11//1 19//1
f 16//1 11//1 21//1
f 2//1 15//1 14//1
f 93//1 94//1 95//1
f 96//1 97//1 98//1
f 96//1 98//1 99//1
f 99//1 98//1 100//1
f 94//1 93//1 80//1
f 82//1 9//1 76//1
f 68//1 49//1 9//1
f 11//1 16//1 31//1
f 32//1 31//1 101//1
f 23//1 22//1 88//1
f 101//1 31//1 38//1
f 37//1 102//1 46//1
f 22//1 42//1 88//1
f 40//1 88//1 42//1
f 102//1 37//1 45//1
f 45//1 44//1 92//1
f 40//1 42//1 44//1
f 24//1 103//1 22//1
f 104//1 103//1 24//1
f 103//1 105//1 106//1
f 104//1 105//1 103//1
f 106//1 105//1 107//1
f 107//1 105//1 30//1
f 36//1 34//1 33//1
f 108//1 107//1 30//1
f 34//1 26//1 25//1
f 29//1 108//1 30//1
f 28//1 25//1 27//1
f 36//1 35//1 19//1
f 19//1 35//1 109//1
f 20//1 19//1 109//1
f 96//1 110//1 97//1
f 111//1 112//1 97//1
f 99//1 100//1 94//1
f 78//1 8//1 7//1
f 94//1 100//1 95//1
f 81//1 94//1 80//1
f 1//1 81//1 75//1
f 1//1 3//1 81//1
f 3//1 2//1 74//1
f 14//1 16//1 21//1
f 13//1 17//1 11//1
f 13//1 77//1 17//1
f 17//1 77//1 79//1
f 79//1 78//1 7//1
f 8//1 5//1 4//1
f 5//1 112//1 6//1
f 6//1 112//1 111//1
f 111//1 97//1 110//1
f 113//2 114//2 115//2
f 116//2 117//2 118//2
f 118//2 119//2 120//2
f 121//2 115//2 122//2
f 123//2 124//2 125//2
f 126//2 127//2 128//2
f 129//2 130//2 125//2
f 124//2 131//2 132//2
f 133//2 129//2 125//2
f 134//2 135//2 136//2
f 137//2 138//2 139//2
f 140//2 141//2 142//2
f 141//2 137//2 142//2
f 125//2 143//2 144//2
f 145//2 146//2 139//2
f 147//2 148//2 146//2
f 144//2 149//2 150//2
f 151//2 152//2 153//2
f 154//2 155//2 156//2
f 157//2 154//2 150//2
f 149//2 158//2 150//2
f 159//2 160//2 161//2
f 162//2 163//2 164//2
f 165//2 152//2 151//2
f 166//2 167//2 168//2
f 169//2 167//2 166//2
f 169//2 166//2 170//2
f 169//2 170//2 171//2
f 169//2 171//2 172//2
f 172//2 173//2 174//2
f 172//2 174//2 175//2
f 176//2 175//2 177//2
f 176//2 177//2 178//2
f 174//2 179//2 175//2
f 180//2 159//2 161//2
f 181//2 182//2 183//2
f 182//2 184//2 183//2
f 177//2 183//2 178//2
f 185//2 161//2 160//2
f 128//2 114//2 186//2
f 187//2 115//2 121//2
f 122//2 188//2 121//2
f 189//2 190//2 191//2
f 192//2 187//2 193//2
f 194//2 122//2 180//2
f 164//2 195//2 196//2
f 181//2 185//2 197//2
f 181//2 161//2 185//2
f 181//2 197//2 182//2
f 178//2 183//2 184//2
f 177//2 175//2 179//2
f 173//2 172//2 171//2
f 172//2 198//2 169//2
f 153//2 152//2 199//2
f 152//2 200//2 199//2
f 167//2 201//2 168//2
f 201//2 164//2 168//2
f 162//2 164//2 201//2
f 163//2 195//2 164//2
f 195//2 202//2 196//2
f 202//2 165//2 196//2
f 165//2 203//2 196//2
f 151//2 203//2 165//2
f 154//2 204//2 155//2
f 132//2 125//2 124//2
f 133//2 125//2 126//2
f 128//2 127//2 114//2
f 205//2 206//2 207//2
f 208//2 209//2 210//2
f 211//2 208//2 210//2
f 212//2 208//2 211//2
f 193//2 207//2 206//2
f 188//2 122//2 194//2
f 122//2 159//2 180//2
f 144//2 126//2 125//2
f 213//2 144//2 143//2
f 200//2 136//2 135//2
f 149//2 144//2 213//2
f 158//2 214//2 150//2
f 200//2 156//2 136//2
f 156//2 200//2 152//2
f 157//2 150//2 214//2
f 204//2 154//2 157//2
f 154//2 156//2 152//2
f 136//2 215//2 134//2
f 134//2 215//2 216//2
f 217//2 218//2 215//2
f 215//2 218//2 216//2
f 219//2 218//2 217//2
f 140//2 218//2 219//2
f 146//2 145//2 147//2
f 140//2 219//2 220//2
f 139//2 138//2 145//2
f 140//2 220//2 141//2
f 137//2 139//2 142//2
f 132//2 148//2 147//2
f 221//2 148//2 132//2
f 221//2 132//2 131//2
f 209//2 222//2 210//2
f 209//2 223//2 224//2
f 206//2 212//2 211//2
f 120//2 119//2 190//2
f 205//2 212//2 206//2
f 193//2 206//2 192//2
f 187//2 192//2 115//2
f 192//2 113//2 115//2
f 186//2 114//2 113//2
f 133//2 126//2 128//2
f 125//2 130//2 123//2
f 130//2 191//2 123//2
f 189//2 191//2 130//2
f 120//2 190//2 189//2
f 118//2 117//2 119//2
f 116//2 223//2 117//2
f 224//2 223//2 116//2
f 222//2 209//2 224//2
f 93//3 193//3 80//3
f 93//3 207//3 193//3
f 95//4 207//4 93//4
f 95//4 205//4 207//4
f 100//5 205//5 95//5
f 100//5 212//5 205//5
f 98//6 212//6 100//6
f 98//6 208//6 212//6
f 97//7 208//7 98//7
f 97//7 209//7 208//7
f 112//8 209//8 97//8
f 112//8 223//8 209//8
f 5//9 223//9 112//9
f 5//9 117//9 223//9
f 8//10 117//10 5//10
f 8//10 119//10 117//10
f 78//11 119//11 8//11
f 78//11 190//12 119//11
f 77//13 190//13 78//13
f 77//13 191//13 190//13
f 13//14 191//14 77//14
f 13//14 123//14 191//14
f 12//15 123//15 13//15
f 12//15 124//15 123//15
f 20//16 124//16 12//16
f 20//16 131//16 124//16
f 109//17 131//17 20//17
f 109//17 221//17 131//17
f 35//18 221//18 109//18
f 35//18 148//18 221//18
f 33//19 148//19 35//19
f 33//19 146//19 148//19
f 25//20 146//20 33//20
f 25//20 139//20 146//20
f 28//21 139//21 25//21
f 28//21 142//21 139//21
f 30//22 142//22 28//22
f 30//22 140//22 142//22
f 105//23 140//23 30//23
f 105//23 218//23 140//23
f 104//24 218//24 105//24
f 104//24 216//24 218//24
f 24//25 216//25 104//25
f 24//25 134//25 216//25
f 23//26 134//26 24//26
f 23//26 135//26 134//26
f 88//27 135//27 23//27
f 88//27 200//27 135//27
f 87//28 200//28 88//28
f 87//28 199//28 200//28
f 39//29 199//29 87//29
f 39//29 153//29 199//29
f 41//30 153//30 39//30
f 41//30 151//30 153//30
f 91//31 151//31 41//31
f 91//31 203//31 151//31
f 83//32 203//32 91//32
f 83//32 196//32 203//32
f 50//33 196//33 83//33
f 50//33 164//33 196//33
f 54//34 164//34 50//34
f 54//34 168//34 164//34
f 56//35 168//35 54//35
f 56//35 166//35 168//35
f 58//36 166//36 56//36
f 58//36 170//36 166//36
f 59//37 170//37 58//37
f 59//37 171//37 170//37
f 62//38 171//38 59//38
f 62//38 173//38 171//38
f 61//39 173//39 62//39
f 61//39 174//39 173//39
f 67//40 174//40 61//40
f 67//40 179//40 174//40
f 64//41 179//41 67//41
f 64//41 177//41 179//41
f 69//42 177//42 64//42
f 69//42 183//42 177//42
f 71//43 183//43 69//43
f 71//43 181//43 183//43
f 47//44 181//44 71//44
f 47//44 161//44 181//44
f 68//45 161//45 47//45
f 68//45 180//45 161//45
f 82//46 180//46 68//46
f 82//46 194//46 180//46
f 76//47 194//47 82//47
f 76//47 188//47 194//47
f 10//48 188//48 76//48
f 10//48 121//48 188//48
f 75//49 121//49 10//49
f 75//49 187//49 121//49
f 80//50 187//50 75//50
f 80//50 193//50 187//50
f 85//51 197//51 73//51
f 185//51 73//51 197//51
f 70//52 182//52 85//52
f 197//52 85//52 182//52
f 72//53 184//53 70//53
f 182//53 70//53 184//53
f 66//54 178//55 72//55
f 184//55 72//55 178//55
f 65//56 176//56 66//56
f 178//56 66//56 176//56
f 63//57 175//57 65//57
f 176//57 65//57 175//57
f 60//58 172//58 63//58
f 175//58 63//58 172//58
f 86//59 198//59 60//59
f 172//59 60//59 198//59
f 57//60 169//60 86//60
f 198//60 86//60 169//60
f 55//61 167//61 57//61
f 169//61 57//61 167//61
f 89//62 201//62 55//62
f 167//62 55//62 201//62
f 52//63 162//63 89//63
f 201//63 89//63 162//63
f 51//64 163//64 52//64
f 162//64 52//64 163//64
f 84//65 195//65 51//65
f 163//65 51//65 195//65
f 90//66 202//66 84//66
f 195//66 84//66 202//66
f 53//67 165//67 90//67
f 202//67 90//67 165//67
f 40//68 152//68 53//68
f 165//68 53//68 152//68
f 44//69 154//70 40//70
f 152//70 40//70 154//70
f 37//69 150//69 44//69
f 154//70 44//69 150//69
f 31//71 144//71 37//71
f 150//71 37//71 144//71
f 16//72 126//72 31//72
f 144//72 31//72 126//72
f 15//73 127//73 16//73
f 126//73 16//73 127//73
f 2//74 114//74 15//74
f 127//74 15//74 114//74
f 1//75 115//75 2//75
f 114//75 2//75 115//75
f 9//76 122//76 1//76
f 115//76 1//76 122//76
f 49//77 159//77 9//77
f 122//77 9//77 159//77
f 48//78 160//78 49//78
f 159//78 49//78 160//78
f 73//79 185//79 48//79
f 160//79 48//79 185//79
f 101//80 213//80 32//80
f 143//80 32//80 213//80
f 38//81 149//81 101//81
f 213//81 101//81 149//81
f 46//82 158//82 38//82
f 149//82 38//82 158//82
f 102//83 214//83 46//83
f 158//83 46//83 214//83
f 45//84 157//84 102//84
f 214//84 102//84 157//84
f 92//63 204//63 45//63
f 157//63 45//63 204//63
f 43//85 155//85 92//85
f 204//85 92//85 155//85
f 42//86 156//86 43//86
f 155//86 43//86 156//86
f 22//87 136//87 42//87
f 156//87 42//87 136//87
f 103//88 215//88 22//88
f 136//88 22//88 215//88
f 106//89 217//89 103//89
f 215//89 103//89 217//89
f 107//90 219//90 106//90
f 217//90 106//90 219//90
f 108//91 220//91 107//91
f 219//91 107//91 220//91
f 29//67 141//67 108//67
f 220//67 108//67 141//67
f 27//92 137//92 29//92
f 141//92 29//92 137//92
f 26//93 138//93 27//93
f 137//93 27//93 138//93
f 34//94 145//94 26//94
f 138//94 26//94 145//94
f 36//95 147//95 34//95
f 145//95 34//95 147//95
f 19//96 132//96 36//96
f 147//96 36//96 132//96
f 11//97 125//97 19//97
f 132//97 19//97 125//97
f 32//98 143//98 11//98
f 125//98 11//98 143//98
f 99//99 211//99 96//99
f 210//99 96//99 211//99
f 94//100 206//100 99//100
f 211//100 99//100 206//100
f 81//101 192//101 94//101
f 206//101 94//101 192//101
f 3//102 113//102 81//102
f 192//102 81//102 113//102
f 74//103 186//103 3//103
f 113//103 3//103 186//103
f 14//104 128//104 74//104
f 186//104 74//104 128//104
f 21//67 133//67 14//67
f 128//67 14//67 133//67
f 18//105 129//105 21//105
f 133//105 21//105 129//105
f 17//106 130//106 18//106
f 129//106 18//106 130//106
f 79//107 189//107 17//107
f 130//107 17//107 189//107
f 7//108 120//108 79//108
f 189//108 79//108 120//108
f 4//109 118//109 7//109
f 120//109 7//109 118//109
f 6//72 116//72 4//72
f 118//72 4//72 116//72
f 111//110 224//110 6//110
f 116//110 6//110 224//110
f 110//111 222//111 111//111
f 224//111 111//111 222//111
f 96//112 210//112 110//112
f 222//112 110//112 210//112
