# Blender v2.81 (sub 16) OBJ File: ''
# www.blender.org
mtllib 3.mtl
o 3
v -2.237701 8.920257 -0.609999
v -0.752146 6.988633 -0.609999
v -1.987316 9.172393 -0.609999
v -2.332327 9.086069 -0.609999
v -2.334840 9.171539 -0.609999
v -2.341538 9.118547 -0.609999
v -2.342377 9.145898 -0.609999
v -2.314743 9.212564 -0.609999
v -2.286270 9.245042 -0.609999
v -2.313067 9.045043 -0.609999
v -2.184108 9.283505 -0.609999
v -2.238538 9.274103 -0.609999
v -2.125489 9.270685 -0.609999
v -2.141400 9.277522 -0.609999
v -2.073570 9.235641 -0.609999
v -2.282083 8.990342 -0.609999
v -0.906229 6.883505 -0.609999
v 0.057623 7.607437 -0.609999
v -0.809089 6.940769 -0.609999
v -0.765544 6.974957 -0.609999
v -0.861008 6.905726 -0.609999
v -0.898691 6.885214 -0.609999
v -1.987316 9.172393 -0.909999
v -0.752146 6.988633 -0.909999
v -2.237701 8.920257 -0.909999
v -2.341538 9.118547 -0.909999
v -2.334840 9.171539 -0.909999
v -2.332327 9.086069 -0.909999
v -2.342377 9.145898 -0.909999
v -2.314743 9.212564 -0.909999
v -2.286270 9.245042 -0.909999
v -2.313067 9.045043 -0.909999
v -2.238538 9.274103 -0.909999
v -2.184108 9.283505 -0.909999
v -2.141400 9.277522 -0.909999
v -2.125489 9.270685 -0.909999
v -2.073570 9.235641 -0.909999
v -2.282083 8.990342 -0.909999
v -0.906229 6.883505 -0.909999
v 0.057623 7.607437 -0.909999
v -0.765544 6.974957 -0.909999
v -0.809089 6.940769 -0.909999
v -0.861009 6.905726 -0.909999
v -0.898692 6.885214 -0.909999
vn 0.0000 -0.0000 1.0000
vn -0.0000 0.0000 -1.0000
vn -0.8370 -0.5472 0.0000
vn -0.8448 -0.5350 0.0000
vn -0.8449 -0.5350 0.0000
vn -0.8701 -0.4929 0.0000
vn -0.9052 -0.4250 0.0000
vn -0.9621 -0.2728 0.0000
vn -0.9621 -0.2729 0.0000
vn -0.9995 -0.0307 0.0000
vn -0.9594 0.2820 0.0000
vn -0.8980 0.4399 0.0000
vn -0.7519 0.6592 0.0000
vn -0.5200 0.8541 0.0000
vn -0.1702 0.9854 0.0000
vn 0.1387 0.9903 0.0000
vn 0.3948 0.9188 0.0000
vn 0.5595 0.8289 0.0000
vn 0.5913 0.8064 0.0000
vn 0.6077 0.7941 0.0000
vn 0.6072 -0.7946 0.0000
vn 0.7143 -0.6998 0.0000
vn 0.6175 -0.7865 0.0000
vn 0.5594 -0.8289 -0.0000
vn 0.4781 -0.8783 0.0000
vn 0.2211 -0.9752 -0.0000
usemtl Material.002
s 1
f 1//1 2//1 3//1
f 4//1 5//1 6//1
f 5//1 7//1 6//1
f 4//1 8//1 5//1
f 4//1 9//1 8//1
f 4//1 10//1 9//1
f 9//1 11//1 12//1
f 9//1 10//1 11//1
f 11//1 13//1 14//1
f 11//1 10//1 13//1
f 13//1 10//1 15//1
f 15//1 10//1 16//1
f 3//1 15//1 16//1
f 1//1 3//1 16//1
f 17//1 2//1 1//1
f 3//1 2//1 18//1
f 19//1 20//1 2//1
f 17//1 19//1 2//1
f 17//1 21//1 19//1
f 17//1 22//1 21//1
f 23//2 24//2 25//2
f 26//2 27//2 28//2
f 26//2 29//2 27//2
f 27//2 30//2 28//2
f 30//2 31//2 28//2
f 31//2 32//2 28//2
f 33//2 34//2 31//2
f 34//2 32//2 31//2
f 35//2 36//2 34//2
f 36//2 32//2 34//2
f 37//2 32//2 36//2
f 38//2 32//2 37//2
f 38//2 37//2 23//2
f 38//2 23//2 25//2
f 25//2 24//2 39//2
f 40//2 24//2 23//2
f 24//2 41//2 42//2
f 24//2 42//2 39//2
f 42//2 43//2 39//2
f 43//2 44//2 39//2
f 1//3 39//3 17//3
f 1//3 25//3 39//3
f 16//4 25//4 1//4
f 16//4 38//5 25//4
f 10//6 38//6 16//6
f 10//6 32//6 38//6
f 4//7 32//7 10//7
f 4//7 28//7 32//7
f 6//8 28//9 4//8
f 6//8 26//9 28//9
f 7//10 26//10 6//10
f 7//10 29//10 26//10
f 5//11 29//11 7//11
f 5//11 27//11 29//11
f 8//12 27//12 5//12
f 8//12 30//12 27//12
f 9//13 30//13 8//13
f 9//13 31//13 30//13
f 12//14 31//14 9//14
f 12//14 33//14 31//14
f 11//15 33//15 12//15
f 11//15 34//15 33//15
f 14//16 34//16 11//16
f 14//16 35//16 34//16
f 13//17 35//17 14//17
f 13//17 36//17 35//17
f 15//18 36//18 13//18
f 15//18 37//18 36//18
f 3//19 37//19 15//19
f 3//19 23//19 37//19
f 18//20 23//20 3//20
f 18//20 40//20 23//20
f 2//21 40//21 18//21
f 2//21 24//21 40//21
f 20//22 24//22 2//22
f 20//22 41//22 24//22
f 19//23 41//23 20//23
f 19//23 42//23 41//23
f 21//24 42//24 19//24
f 21//24 43//24 42//24
f 22//25 43//25 21//25
f 22//25 44//25 43//25
f 17//26 44//26 22//26
f 17//26 39//26 44//26
